<mxfile host="www.draw.io" modified="2020-02-12T12:12:58.590Z" agent="Mozilla/5.0 (Windows NT 10.0; Win64; x64) AppleWebKit/537.36 (KHTML, like Gecko) Chrome/79.0.3945.130 Safari/537.36" etag="9x0IXRkWlhXjkelXJOVc" version="12.6.7" type="github">
  <diagram id="C5RBs43oDa-KdzZeNtuy" name="Page-1">
    <mxGraphModel dx="1038" dy="188" grid="1" gridSize="10" guides="1" tooltips="1" connect="1" arrows="1" fold="1" page="0" pageScale="1" pageWidth="827" pageHeight="1169" background="none" math="0" shadow="1">
      <root>
        <mxCell id="WIyWlLk6GJQsqaUBKTNV-0"/>
        <mxCell id="WIyWlLk6GJQsqaUBKTNV-1" parent="WIyWlLk6GJQsqaUBKTNV-0"/>
        <mxCell id="X3h2NTikwHNBwjVgulAn-1" value="服务器接收指令" style="rounded=1;whiteSpace=wrap;html=1;" vertex="1" parent="WIyWlLk6GJQsqaUBKTNV-1">
          <mxGeometry x="532.5" y="420" width="110" height="30" as="geometry"/>
        </mxCell>
        <mxCell id="X3h2NTikwHNBwjVgulAn-2" value="普通指令" style="rounded=1;whiteSpace=wrap;html=1;" vertex="1" parent="WIyWlLk6GJQsqaUBKTNV-1">
          <mxGeometry x="10" y="569" width="110" height="30" as="geometry"/>
        </mxCell>
        <mxCell id="X3h2NTikwHNBwjVgulAn-4" value="是否&lt;br&gt;事务&lt;br&gt;状态" style="rhombus;whiteSpace=wrap;html=1;" vertex="1" parent="WIyWlLk6GJQsqaUBKTNV-1">
          <mxGeometry x="550" y="490" width="75" height="60" as="geometry"/>
        </mxCell>
        <mxCell id="X3h2NTikwHNBwjVgulAn-5" value="执行指令" style="rounded=1;whiteSpace=wrap;html=1;" vertex="1" parent="WIyWlLk6GJQsqaUBKTNV-1">
          <mxGeometry x="10" y="650" width="110" height="30" as="geometry"/>
        </mxCell>
        <mxCell id="X3h2NTikwHNBwjVgulAn-6" value="返回执行结果" style="rounded=1;whiteSpace=wrap;html=1;" vertex="1" parent="WIyWlLk6GJQsqaUBKTNV-1">
          <mxGeometry x="10" y="730" width="110" height="30" as="geometry"/>
        </mxCell>
        <mxCell id="X3h2NTikwHNBwjVgulAn-7" value="识别指令" style="rounded=1;whiteSpace=wrap;html=1;" vertex="1" parent="WIyWlLk6GJQsqaUBKTNV-1">
          <mxGeometry x="190" y="539" width="110" height="30" as="geometry"/>
        </mxCell>
        <mxCell id="X3h2NTikwHNBwjVgulAn-8" value="MULTI" style="rounded=1;whiteSpace=wrap;html=1;" vertex="1" parent="WIyWlLk6GJQsqaUBKTNV-1">
          <mxGeometry x="190" y="610" width="110" height="30" as="geometry"/>
        </mxCell>
        <mxCell id="X3h2NTikwHNBwjVgulAn-9" value="创建队列" style="rounded=1;whiteSpace=wrap;html=1;" vertex="1" parent="WIyWlLk6GJQsqaUBKTNV-1">
          <mxGeometry x="190" y="670" width="110" height="30" as="geometry"/>
        </mxCell>
        <mxCell id="X3h2NTikwHNBwjVgulAn-10" value="&quot;OK&quot;" style="rounded=1;whiteSpace=wrap;html=1;" vertex="1" parent="WIyWlLk6GJQsqaUBKTNV-1">
          <mxGeometry x="190" y="730" width="110" height="30" as="geometry"/>
        </mxCell>
        <mxCell id="X3h2NTikwHNBwjVgulAn-11" value="EXEC" style="rounded=1;whiteSpace=wrap;html=1;" vertex="1" parent="WIyWlLk6GJQsqaUBKTNV-1">
          <mxGeometry x="347.5" y="610" width="110" height="30" as="geometry"/>
        </mxCell>
        <mxCell id="X3h2NTikwHNBwjVgulAn-12" value="执行事务" style="rounded=1;whiteSpace=wrap;html=1;" vertex="1" parent="WIyWlLk6GJQsqaUBKTNV-1">
          <mxGeometry x="347.5" y="670" width="110" height="30" as="geometry"/>
        </mxCell>
        <mxCell id="X3h2NTikwHNBwjVgulAn-13" value="返回执行结果" style="rounded=1;whiteSpace=wrap;html=1;" vertex="1" parent="WIyWlLk6GJQsqaUBKTNV-1">
          <mxGeometry x="347.5" y="730" width="110" height="30" as="geometry"/>
        </mxCell>
        <mxCell id="X3h2NTikwHNBwjVgulAn-14" value="识别指令" style="rounded=1;whiteSpace=wrap;html=1;" vertex="1" parent="WIyWlLk6GJQsqaUBKTNV-1">
          <mxGeometry x="532.5" y="580" width="110" height="30" as="geometry"/>
        </mxCell>
        <mxCell id="X3h2NTikwHNBwjVgulAn-15" value="普通指令" style="rounded=1;whiteSpace=wrap;html=1;" vertex="1" parent="WIyWlLk6GJQsqaUBKTNV-1">
          <mxGeometry x="532.5" y="650" width="110" height="30" as="geometry"/>
        </mxCell>
        <mxCell id="X3h2NTikwHNBwjVgulAn-16" value="加入队列" style="rounded=1;whiteSpace=wrap;html=1;" vertex="1" parent="WIyWlLk6GJQsqaUBKTNV-1">
          <mxGeometry x="532.5" y="710" width="110" height="30" as="geometry"/>
        </mxCell>
        <mxCell id="X3h2NTikwHNBwjVgulAn-17" value="“QUEUED”" style="rounded=1;whiteSpace=wrap;html=1;" vertex="1" parent="WIyWlLk6GJQsqaUBKTNV-1">
          <mxGeometry x="532.5" y="770" width="110" height="30" as="geometry"/>
        </mxCell>
        <mxCell id="X3h2NTikwHNBwjVgulAn-18" value="DISCARD" style="rounded=1;whiteSpace=wrap;html=1;" vertex="1" parent="WIyWlLk6GJQsqaUBKTNV-1">
          <mxGeometry x="700" y="610" width="110" height="30" as="geometry"/>
        </mxCell>
        <mxCell id="X3h2NTikwHNBwjVgulAn-19" value="销毁队列" style="rounded=1;whiteSpace=wrap;html=1;" vertex="1" parent="WIyWlLk6GJQsqaUBKTNV-1">
          <mxGeometry x="700" y="670" width="110" height="30" as="geometry"/>
        </mxCell>
        <mxCell id="X3h2NTikwHNBwjVgulAn-20" value="&quot;OK&quot;" style="rounded=1;whiteSpace=wrap;html=1;" vertex="1" parent="WIyWlLk6GJQsqaUBKTNV-1">
          <mxGeometry x="700" y="730" width="110" height="30" as="geometry"/>
        </mxCell>
        <mxCell id="X3h2NTikwHNBwjVgulAn-21" value="" style="endArrow=classic;html=1;exitX=0;exitY=0.5;exitDx=0;exitDy=0;" edge="1" parent="WIyWlLk6GJQsqaUBKTNV-1" source="X3h2NTikwHNBwjVgulAn-4">
          <mxGeometry width="50" height="50" relative="1" as="geometry">
            <mxPoint x="370" y="540" as="sourcePoint"/>
            <mxPoint x="240" y="540" as="targetPoint"/>
            <Array as="points">
              <mxPoint x="240" y="520"/>
            </Array>
          </mxGeometry>
        </mxCell>
        <mxCell id="X3h2NTikwHNBwjVgulAn-22" value="" style="endArrow=classic;html=1;exitX=0;exitY=0.5;exitDx=0;exitDy=0;entryX=0.5;entryY=0;entryDx=0;entryDy=0;" edge="1" parent="WIyWlLk6GJQsqaUBKTNV-1" source="X3h2NTikwHNBwjVgulAn-7" target="X3h2NTikwHNBwjVgulAn-2">
          <mxGeometry width="50" height="50" relative="1" as="geometry">
            <mxPoint x="80" y="550" as="sourcePoint"/>
            <mxPoint x="130" y="500" as="targetPoint"/>
            <Array as="points">
              <mxPoint x="65" y="554"/>
            </Array>
          </mxGeometry>
        </mxCell>
        <mxCell id="X3h2NTikwHNBwjVgulAn-23" value="" style="endArrow=classic;html=1;exitX=0.5;exitY=1;exitDx=0;exitDy=0;entryX=0.5;entryY=0;entryDx=0;entryDy=0;" edge="1" parent="WIyWlLk6GJQsqaUBKTNV-1" source="X3h2NTikwHNBwjVgulAn-2" target="X3h2NTikwHNBwjVgulAn-5">
          <mxGeometry width="50" height="50" relative="1" as="geometry">
            <mxPoint x="50" y="660" as="sourcePoint"/>
            <mxPoint x="100" y="610" as="targetPoint"/>
          </mxGeometry>
        </mxCell>
        <mxCell id="X3h2NTikwHNBwjVgulAn-24" value="" style="endArrow=classic;html=1;entryX=0.5;entryY=0;entryDx=0;entryDy=0;exitX=0.5;exitY=1;exitDx=0;exitDy=0;" edge="1" parent="WIyWlLk6GJQsqaUBKTNV-1" source="X3h2NTikwHNBwjVgulAn-5" target="X3h2NTikwHNBwjVgulAn-6">
          <mxGeometry width="50" height="50" relative="1" as="geometry">
            <mxPoint x="10" y="870" as="sourcePoint"/>
            <mxPoint x="60" y="820" as="targetPoint"/>
          </mxGeometry>
        </mxCell>
        <mxCell id="X3h2NTikwHNBwjVgulAn-25" value="" style="endArrow=classic;html=1;entryX=0.5;entryY=0;entryDx=0;entryDy=0;" edge="1" parent="WIyWlLk6GJQsqaUBKTNV-1" source="X3h2NTikwHNBwjVgulAn-7" target="X3h2NTikwHNBwjVgulAn-8">
          <mxGeometry width="50" height="50" relative="1" as="geometry">
            <mxPoint x="320" y="620" as="sourcePoint"/>
            <mxPoint x="370" y="570" as="targetPoint"/>
          </mxGeometry>
        </mxCell>
        <mxCell id="X3h2NTikwHNBwjVgulAn-26" value="" style="endArrow=classic;html=1;exitX=0.5;exitY=1;exitDx=0;exitDy=0;entryX=0.5;entryY=0;entryDx=0;entryDy=0;" edge="1" parent="WIyWlLk6GJQsqaUBKTNV-1" source="X3h2NTikwHNBwjVgulAn-8" target="X3h2NTikwHNBwjVgulAn-9">
          <mxGeometry width="50" height="50" relative="1" as="geometry">
            <mxPoint x="230" y="690" as="sourcePoint"/>
            <mxPoint x="280" y="640" as="targetPoint"/>
          </mxGeometry>
        </mxCell>
        <mxCell id="X3h2NTikwHNBwjVgulAn-27" value="" style="endArrow=classic;html=1;exitX=0.5;exitY=1;exitDx=0;exitDy=0;entryX=0.5;entryY=0;entryDx=0;entryDy=0;" edge="1" parent="WIyWlLk6GJQsqaUBKTNV-1" source="X3h2NTikwHNBwjVgulAn-9" target="X3h2NTikwHNBwjVgulAn-10">
          <mxGeometry width="50" height="50" relative="1" as="geometry">
            <mxPoint x="230" y="750" as="sourcePoint"/>
            <mxPoint x="280" y="700" as="targetPoint"/>
          </mxGeometry>
        </mxCell>
        <mxCell id="X3h2NTikwHNBwjVgulAn-28" value="" style="endArrow=classic;html=1;exitX=0.5;exitY=1;exitDx=0;exitDy=0;entryX=0.5;entryY=0;entryDx=0;entryDy=0;" edge="1" parent="WIyWlLk6GJQsqaUBKTNV-1" source="X3h2NTikwHNBwjVgulAn-1" target="X3h2NTikwHNBwjVgulAn-4">
          <mxGeometry width="50" height="50" relative="1" as="geometry">
            <mxPoint x="570" y="500" as="sourcePoint"/>
            <mxPoint x="620" y="450" as="targetPoint"/>
          </mxGeometry>
        </mxCell>
        <mxCell id="X3h2NTikwHNBwjVgulAn-29" value="" style="endArrow=classic;html=1;entryX=0.5;entryY=0;entryDx=0;entryDy=0;exitX=0.5;exitY=1;exitDx=0;exitDy=0;" edge="1" parent="WIyWlLk6GJQsqaUBKTNV-1" source="X3h2NTikwHNBwjVgulAn-4" target="X3h2NTikwHNBwjVgulAn-14">
          <mxGeometry width="50" height="50" relative="1" as="geometry">
            <mxPoint x="510" y="590" as="sourcePoint"/>
            <mxPoint x="560" y="540" as="targetPoint"/>
          </mxGeometry>
        </mxCell>
        <mxCell id="X3h2NTikwHNBwjVgulAn-30" value="" style="endArrow=classic;html=1;entryX=0.5;entryY=0;entryDx=0;entryDy=0;" edge="1" parent="WIyWlLk6GJQsqaUBKTNV-1" target="X3h2NTikwHNBwjVgulAn-11">
          <mxGeometry width="50" height="50" relative="1" as="geometry">
            <mxPoint x="530" y="590" as="sourcePoint"/>
            <mxPoint x="490" y="540" as="targetPoint"/>
            <Array as="points">
              <mxPoint x="403" y="590"/>
            </Array>
          </mxGeometry>
        </mxCell>
        <mxCell id="X3h2NTikwHNBwjVgulAn-32" value="" style="endArrow=classic;html=1;exitX=0.5;exitY=1;exitDx=0;exitDy=0;entryX=0.5;entryY=0;entryDx=0;entryDy=0;" edge="1" parent="WIyWlLk6GJQsqaUBKTNV-1" source="X3h2NTikwHNBwjVgulAn-11" target="X3h2NTikwHNBwjVgulAn-12">
          <mxGeometry width="50" height="50" relative="1" as="geometry">
            <mxPoint x="490" y="680" as="sourcePoint"/>
            <mxPoint x="540" y="630" as="targetPoint"/>
          </mxGeometry>
        </mxCell>
        <mxCell id="X3h2NTikwHNBwjVgulAn-33" value="" style="endArrow=classic;html=1;entryX=0.5;entryY=0;entryDx=0;entryDy=0;exitX=0.5;exitY=1;exitDx=0;exitDy=0;" edge="1" parent="WIyWlLk6GJQsqaUBKTNV-1" source="X3h2NTikwHNBwjVgulAn-12" target="X3h2NTikwHNBwjVgulAn-13">
          <mxGeometry width="50" height="50" relative="1" as="geometry">
            <mxPoint x="457.5" y="680" as="sourcePoint"/>
            <mxPoint x="508" y="630" as="targetPoint"/>
          </mxGeometry>
        </mxCell>
        <mxCell id="X3h2NTikwHNBwjVgulAn-34" value="" style="endArrow=classic;html=1;entryX=0.5;entryY=0;entryDx=0;entryDy=0;exitX=0.5;exitY=1;exitDx=0;exitDy=0;" edge="1" parent="WIyWlLk6GJQsqaUBKTNV-1" source="X3h2NTikwHNBwjVgulAn-14" target="X3h2NTikwHNBwjVgulAn-15">
          <mxGeometry width="50" height="50" relative="1" as="geometry">
            <mxPoint x="650" y="650" as="sourcePoint"/>
            <mxPoint x="700" y="600" as="targetPoint"/>
          </mxGeometry>
        </mxCell>
        <mxCell id="X3h2NTikwHNBwjVgulAn-35" value="" style="endArrow=classic;html=1;exitX=0.5;exitY=1;exitDx=0;exitDy=0;entryX=0.5;entryY=0;entryDx=0;entryDy=0;" edge="1" parent="WIyWlLk6GJQsqaUBKTNV-1" source="X3h2NTikwHNBwjVgulAn-15" target="X3h2NTikwHNBwjVgulAn-16">
          <mxGeometry width="50" height="50" relative="1" as="geometry">
            <mxPoint x="580" y="730" as="sourcePoint"/>
            <mxPoint x="630" y="680" as="targetPoint"/>
          </mxGeometry>
        </mxCell>
        <mxCell id="X3h2NTikwHNBwjVgulAn-36" value="" style="endArrow=classic;html=1;entryX=0.5;entryY=0;entryDx=0;entryDy=0;exitX=0.5;exitY=1;exitDx=0;exitDy=0;" edge="1" parent="WIyWlLk6GJQsqaUBKTNV-1" source="X3h2NTikwHNBwjVgulAn-16" target="X3h2NTikwHNBwjVgulAn-17">
          <mxGeometry width="50" height="50" relative="1" as="geometry">
            <mxPoint x="470" y="840" as="sourcePoint"/>
            <mxPoint x="520" y="790" as="targetPoint"/>
          </mxGeometry>
        </mxCell>
        <mxCell id="X3h2NTikwHNBwjVgulAn-37" value="" style="endArrow=classic;html=1;exitX=1;exitY=0.5;exitDx=0;exitDy=0;entryX=0.5;entryY=0;entryDx=0;entryDy=0;" edge="1" parent="WIyWlLk6GJQsqaUBKTNV-1" source="X3h2NTikwHNBwjVgulAn-14" target="X3h2NTikwHNBwjVgulAn-18">
          <mxGeometry width="50" height="50" relative="1" as="geometry">
            <mxPoint x="720" y="580" as="sourcePoint"/>
            <mxPoint x="770" y="530" as="targetPoint"/>
            <Array as="points">
              <mxPoint x="755" y="595"/>
            </Array>
          </mxGeometry>
        </mxCell>
        <mxCell id="X3h2NTikwHNBwjVgulAn-38" value="" style="endArrow=classic;html=1;" edge="1" parent="WIyWlLk6GJQsqaUBKTNV-1" source="X3h2NTikwHNBwjVgulAn-19">
          <mxGeometry width="50" height="50" relative="1" as="geometry">
            <mxPoint x="755" y="750" as="sourcePoint"/>
            <mxPoint x="755" y="730" as="targetPoint"/>
          </mxGeometry>
        </mxCell>
        <mxCell id="X3h2NTikwHNBwjVgulAn-39" value="" style="endArrow=classic;html=1;" edge="1" parent="WIyWlLk6GJQsqaUBKTNV-1" source="X3h2NTikwHNBwjVgulAn-18">
          <mxGeometry width="50" height="50" relative="1" as="geometry">
            <mxPoint x="755" y="690" as="sourcePoint"/>
            <mxPoint x="755" y="670" as="targetPoint"/>
          </mxGeometry>
        </mxCell>
        <mxCell id="X3h2NTikwHNBwjVgulAn-40" value="YES" style="text;html=1;align=center;verticalAlign=middle;resizable=0;points=[];autosize=1;" vertex="1" parent="WIyWlLk6GJQsqaUBKTNV-1">
          <mxGeometry x="564" y="556" width="40" height="20" as="geometry"/>
        </mxCell>
        <mxCell id="X3h2NTikwHNBwjVgulAn-41" value="NO" style="text;html=1;align=center;verticalAlign=middle;resizable=0;points=[];autosize=1;" vertex="1" parent="WIyWlLk6GJQsqaUBKTNV-1">
          <mxGeometry x="410" y="507" width="30" height="20" as="geometry"/>
        </mxCell>
      </root>
    </mxGraphModel>
  </diagram>
</mxfile>
